<?xml version="1.0" standalone="no"?>
<!DOCTYPE svg PUBLIC "-//W3C//DTD SVG 20010904//EN"
 "http://www.w3.org/TR/2001/REC-SVG-20010904/DTD/svg10.dtd">
<svg version="1.0" xmlns="http://www.w3.org/2000/svg"
 width="1024.000000pt" height="1024.000000pt" viewBox="0 0 1024.000000 1024.000000"
 preserveAspectRatio="xMidYMid meet">

<g transform="translate(0.000000,1024.000000) scale(0.100000,-0.100000)"
fill="#564343" stroke="none">
<path d="M5055 8184 c-320 -49 -578 -172 -797 -383 -219 -209 -352 -452 -414
-751 -19 -90 -26 -329 -12 -406 l8 -41 -237 -188 c-131 -104 -242 -188 -248
-188 -8 0 -1481 1163 -1763 1391 -79 65 -180 47 -209 -38 -16 -46 -18 -4445
-3 -4502 10 -34 97 -106 965 -795 525 -417 966 -761 981 -765 15 -4 39 -5 54
-2 15 4 408 309 921 716 492 391 899 712 906 715 7 3 415 -316 908 -707 565
-448 909 -716 930 -721 25 -7 43 -6 67 5 39 16 1845 1448 1901 1506 l37 39 0
2256 0 2255 -32 35 c-36 39 -86 53 -128 37 -19 -7 -990 -773 -1807 -1424 -9
-7 -79 43 -243 174 l-231 183 8 55 c14 94 8 308 -11 405 -53 274 -174 508
-366 708 -160 168 -337 284 -545 357 -162 57 -243 71 -435 75 -96 2 -188 1
-205 -1z m400 -259 c537 -111 926 -580 928 -1120 1 -362 -232 -774 -956 -1693
-109 -138 -202 -250 -207 -247 -11 7 -401 506 -532 680 -334 446 -528 788
-599 1057 -28 103 -30 272 -6 399 96 496 490 869 993 938 93 13 281 6 379 -14z
m-3017 -1289 l792 -629 0 -704 0 -705 -32 28 -33 27 -180 -6 c-214 -8 -359
-23 -397 -43 -78 -40 -76 -169 4 -210 29 -15 47 -16 168 -6 74 7 191 14 260
17 152 7 160 9 188 35 l22 21 0 -1285 0 -1286 -437 348 c-241 191 -602 478
-803 637 l-365 290 -3 472 -2 471 102 40 c57 22 144 53 193 68 58 18 100 37
117 54 75 76 20 202 -88 202 -18 0 -98 -22 -178 -50 l-146 -50 0 1455 c0 1209
2 1453 13 1446 8 -4 370 -291 805 -637z m6372 -1201 c0 -1792 -1 -1845 -19
-1845 -10 0 -65 -18 -123 -39 -58 -21 -163 -56 -234 -76 -160 -47 -177 -55
-199 -101 -22 -47 -14 -98 21 -135 53 -55 101 -49 414 56 74 25 135 45 137 45
2 0 3 -38 3 -84 l0 -84 -797 -633 c-439 -348 -804 -637 -810 -642 -10 -7 -13
109 -13 577 l0 586 113 0 c61 0 170 5 242 10 145 11 167 20 199 84 16 32 17
44 7 75 -6 20 -22 48 -37 62 l-26 24 -249 -4 -249 -3 1 1348 0 1349 802 637
c441 350 805 637 810 637 4 1 7 -829 7 -1844z m-4690 515 c156 -259 342 -518
690 -960 119 -151 242 -310 275 -353 60 -81 95 -107 140 -107 45 0 80 26 140
107 33 43 142 184 244 313 487 619 725 969 866 1273 28 59 55 106 60 105 6 -2
102 -75 213 -163 l202 -160 0 -2059 c0 -1960 -1 -2058 -17 -2044 -16 13 -1480
1175 -1621 1286 -45 35 -61 42 -97 42 -37 0 -54 -8 -107 -48 -92 -70 -1579
-1251 -1605 -1275 l-23 -20 0 2060 0 2060 216 172 217 171 72 -147 c39 -82
100 -195 135 -253z"/>
<path d="M5035 7569 c-345 -85 -595 -387 -612 -739 -19 -389 231 -727 612
-826 96 -25 284 -25 380 0 346 90 589 382 612 733 25 390 -236 741 -620 833
-109 26 -263 26 -372 -1z m306 -233 c194 -42 358 -192 420 -386 29 -91 29
-240 0 -332 -29 -90 -110 -209 -180 -264 -118 -94 -230 -129 -387 -122 -120 6
-191 29 -287 95 -153 104 -240 267 -241 453 -1 160 52 288 164 401 136 138
324 194 511 155z"/>
<path d="M3778 4563 c-63 -40 -73 -130 -22 -184 21 -22 50 -33 163 -59 75 -18
192 -50 260 -72 126 -40 150 -42 196 -12 33 21 58 80 51 116 -13 64 -40 85
-155 122 -155 50 -336 96 -406 102 -47 4 -66 1 -87 -13z"/>
<path d="M4901 4137 c-63 -32 -88 -130 -46 -177 11 -12 70 -55 130 -95 61 -40
159 -107 219 -149 118 -82 148 -91 206 -61 51 27 74 97 51 159 -11 26 -235
190 -388 284 -89 54 -127 63 -172 39z"/>
<path d="M5928 3534 c-36 -19 -58 -63 -58 -115 0 -71 36 -95 235 -162 219 -73
328 -100 365 -92 70 15 112 85 90 150 -15 47 -58 80 -122 95 -75 18 -248 72
-347 109 -94 34 -123 37 -163 15z"/>
</g>
</svg>
