<?xml version="1.0" standalone="no"?>
<!DOCTYPE svg PUBLIC "-//W3C//DTD SVG 20010904//EN"
 "http://www.w3.org/TR/2001/REC-SVG-20010904/DTD/svg10.dtd">
<svg version="1.0" xmlns="http://www.w3.org/2000/svg"
 width="512.000000pt" height="512.000000pt" viewBox="0 0 512.000000 512.000000"
 preserveAspectRatio="xMidYMid meet">

<g transform="translate(0.000000,512.000000) scale(0.100000,-0.100000)"
fill="#D1BD8F" stroke="none">
<path d="M70 5060 c-13 -13 -20 -33 -20 -59 0 -31 -4 -41 -20 -46 -31 -10 -33
-43 -10 -166 12 -63 26 -170 31 -239 59 -822 400 -1618 1008 -2350 124 -150
485 -511 631 -632 736 -609 1538 -967 2343 -1047 48 -5 90 -11 93 -14 5 -5
-60 -128 -158 -300 -56 -99 -58 -126 -8 -152 28 -14 40 -14 157 10 69 14 185
46 257 70 163 54 701 277 727 301 10 9 19 25 19 34 0 23 -77 230 -138 370 -73
169 -242 533 -254 548 -6 6 -25 12 -42 12 -26 0 -45 -15 -125 -97 -108 -113
-199 -225 -244 -302 l-32 -53 -170 5 c-181 6 -278 21 -442 68 -534 154 -1065
509 -1893 1268 -795 729 -1294 1431 -1547 2179 -60 178 -69 228 -83 442 -7
119 -12 147 -26 157 -24 17 -31 16 -54 -7z m370 -1397 c353 -606 1016 -1324
1790 -1937 599 -476 1128 -771 1516 -846 129 -25 312 -27 420 -4 42 8 77 14
78 12 1 -2 10 -15 19 -31 19 -29 53 -36 79 -15 8 7 60 69 116 138 56 69 123
149 149 179 l49 54 76 -169 c125 -275 218 -501 218 -530 0 -13 -13 -19 -205
-96 -317 -127 -617 -230 -631 -216 -4 5 29 89 93 232 29 65 33 82 24 102 -6
13 -15 24 -21 24 -5 0 -10 7 -10 15 0 23 -25 31 -210 69 -846 172 -1626 554
-2260 1104 -148 128 -431 417 -541 552 -347 426 -609 882 -784 1365 -51 141
-48 141 35 -2z"/>
</g>
</svg>
