<?xml version="1.0" standalone="no"?>
<!DOCTYPE svg PUBLIC "-//W3C//DTD SVG 20010904//EN"
 "http://www.w3.org/TR/2001/REC-SVG-20010904/DTD/svg10.dtd">
<svg version="1.0" xmlns="http://www.w3.org/2000/svg"
 width="512.000000pt" height="512.000000pt" viewBox="0 0 512.000000 512.000000"
 preserveAspectRatio="xMidYMid meet">

<g transform="translate(0.000000,512.000000) scale(0.100000,-0.100000)"
fill="#D1BD8F" stroke="none">
<path d="M1160 5099 c-50 -19 -103 -69 -578 -543 -595 -593 -577 -571 -577
-717 0 -75 4 -92 30 -144 59 -115 181 -183 310 -173 113 10 139 28 387 276
l228 226 2 -1254 3 -1255 23 -45 c35 -72 75 -114 144 -151 58 -31 70 -34 148
-34 78 0 90 3 148 34 70 38 100 69 140 145 l27 51 3 1254 2 1255 233 -231
c209 -208 238 -232 290 -252 160 -59 332 10 407 164 35 71 36 198 1 270 -19
39 -136 163 -540 568 -578 580 -566 570 -701 574 -57 2 -88 -2 -130 -18z"/>
<path d="M3765 3831 c-92 -24 -173 -90 -215 -176 l-25 -50 -3 -1254 -2 -1255
-233 231 c-265 262 -273 268 -412 268 -130 -1 -226 -60 -282 -173 -24 -49 -28
-69 -28 -142 0 -145 -18 -123 577 -716 498 -497 526 -523 583 -544 46 -17 76
-21 130 -18 131 6 123 0 696 575 404 405 521 529 540 568 35 72 34 199 -1 270
-75 154 -247 223 -407 164 -52 -20 -81 -44 -290 -252 l-233 -231 -2 1255 -3
1254 -34 63 c-57 105 -144 160 -260 167 -36 2 -79 1 -96 -4z"/>
</g>
</svg>
