<?xml version="1.0" standalone="no"?>
<!DOCTYPE svg PUBLIC "-//W3C//DTD SVG 20010904//EN"
 "http://www.w3.org/TR/2001/REC-SVG-20010904/DTD/svg10.dtd">
<svg version="1.0" xmlns="http://www.w3.org/2000/svg"
 width="920.000000pt" height="627.000000pt" viewBox="0 0 920.000000 627.000000"
 preserveAspectRatio="xMidYMid meet">

<g transform="translate(0.000000,627.000000) scale(0.100000,-0.100000)"
fill="#EED9AA" stroke="none">
<path d="M2090 3949 c0 -5 -4 -8 -8 -5 -24 15 -178 -65 -257 -133 -171 -149
-244 -326 -214 -521 12 -78 38 -160 52 -160 11 0 8 15 -13 66 -30 69 -30 233
0 324 59 177 203 323 395 399 11 5 36 15 55 24 29 13 31 16 13 16 -13 1 -23
-4 -23 -10z"/>
<path d="M2958 3840 c-74 -13 -157 -39 -227 -73 -36 -18 -68 -34 -71 -37 -3
-3 -27 -22 -55 -42 -119 -87 -230 -230 -250 -322 -1 -6 -5 -18 -8 -26 -23 -61
-30 -109 -30 -200 0 -119 14 -178 68 -282 l34 -68 -107 0 c-123 0 -250 24
-335 63 -107 49 -216 137 -263 212 -35 57 -66 77 -40 27 29 -56 106 -140 173
-189 115 -85 226 -126 403 -148 68 -8 143 -15 165 -15 37 0 47 -7 117 -74 133
-129 291 -205 543 -262 110 -25 456 -25 595 0 198 35 366 83 615 176 144 53
303 111 440 160 50 18 99 36 110 40 22 9 150 56 420 153 211 77 467 166 510
177 17 5 53 16 80 25 227 75 395 105 582 105 203 0 413 -44 515 -107 21 -13
42 -23 46 -23 5 0 39 -27 76 -61 78 -72 90 -58 14 15 -44 42 -173 130 -213
145 -5 2 -23 9 -40 17 -130 57 -222 80 -390 95 -113 10 -288 5 -360 -11 -22
-5 -78 -16 -125 -25 -244 -46 -564 -136 -840 -237 -74 -27 -144 -53 -155 -59
-38 -17 -830 -317 -890 -337 -254 -83 -371 -117 -455 -132 -25 -4 -92 -18
-150 -30 -89 -19 -135 -23 -300 -23 -190 0 -198 0 -296 30 -56 17 -126 47
-157 67 -31 20 -60 36 -64 36 -4 0 -42 31 -83 69 l-74 68 114 7 c342 22 643
82 1020 206 30 10 91 29 135 43 177 56 407 132 745 247 491 167 599 203 720
240 58 17 116 36 130 40 68 24 348 90 465 110 301 50 435 63 685 64 240 1 362
-15 525 -66 246 -77 441 -257 517 -478 18 -54 22 -86 22 -190 -1 -111 -4 -133
-28 -194 -74 -190 -216 -312 -481 -412 -11 -4 -31 -9 -45 -11 -14 -2 -32 -7
-40 -10 -8 -4 -84 -7 -168 -8 -84 -1 -155 -5 -159 -9 -3 -3 66 -6 155 -6 98 0
163 4 167 10 4 6 10 8 13 6 21 -13 232 57 232 76 0 5 3 7 8 6 19 -6 126 69
199 140 95 92 147 187 169 310 23 134 14 218 -42 361 -58 147 -237 334 -389
406 -80 37 -233 92 -310 109 -38 9 -86 20 -105 25 -207 54 -674 54 -1015 0
-171 -27 -406 -79 -615 -135 -160 -43 -494 -154 -830 -274 -178 -64 -279 -99
-355 -125 -38 -13 -122 -42 -185 -65 -63 -23 -146 -52 -185 -65 -38 -13 -122
-42 -185 -65 -217 -78 -285 -101 -430 -140 -231 -63 -475 -107 -496 -89 -18
15 -73 126 -85 173 -27 105 -32 290 -9 321 4 6 11 25 15 43 16 77 84 179 172
262 100 93 119 107 201 147 124 59 200 76 342 76 118 1 130 -1 210 -32 105
-41 158 -77 237 -160 54 -57 63 -63 63 -42 0 35 -33 83 -82 118 -43 31 -160
91 -188 97 -8 2 -23 6 -32 10 -9 4 -22 5 -28 1 -5 -3 -10 -2 -10 3 0 26 -185
40 -292 22z"/>
<path d="M6060 2621 c0 -24 32 -66 79 -104 54 -44 211 -122 261 -131 l35 -5
-35 11 c-19 7 -37 15 -40 18 -3 4 -21 15 -40 25 -30 15 -145 90 -160 105 -80
76 -100 92 -100 81z"/>
<path d="M6465 2363 c11 -3 24 -9 30 -14 13 -13 45 -11 45 2 0 6 -9 9 -20 6
-11 -3 -23 -1 -26 4 -3 5 -15 8 -27 8 -20 -1 -20 -2 -2 -6z"/>
<path d="M6573 2333 c9 -2 23 -2 30 0 6 3 -1 5 -18 5 -16 0 -22 -2 -12 -5z"/>
</g>
</svg>
