<?xml version="1.0" standalone="no"?>
<!DOCTYPE svg PUBLIC "-//W3C//DTD SVG 20010904//EN"
 "http://www.w3.org/TR/2001/REC-SVG-20010904/DTD/svg10.dtd">
<svg version="1.0" xmlns="http://www.w3.org/2000/svg"
 width="900.000000pt" height="280.000000pt" viewBox="0 0 900.000000 280.000000"
 preserveAspectRatio="xMidYMid meet">

<g transform="translate(0.000000,280.000000) scale(0.100000,-0.100000)"
fill="#D1BD8F" stroke="none">
<path d="M4492 1905 c-17 -37 -15 -100 4 -116 39 -32 70 48 43 112 -14 36 -32
37 -47 4z"/>
<path d="M4035 1807 c-47 -27 -82 -75 -91 -126 -10 -61 -9 -61 -72 -61 -32 0
-84 -5 -115 -11 -53 -11 -61 -10 -114 14 -166 73 -363 62 -495 -29 -43 -30
-101 -112 -118 -166 l-12 -38 -1444 0 c-1277 0 -1444 -2 -1444 -15 0 -13 167
-15 1440 -15 l1440 0 0 -32 c0 -118 91 -208 185 -184 66 17 122 105 96 154
-15 29 -64 46 -90 32 -30 -15 -28 -42 3 -34 49 12 75 -57 36 -96 -15 -15 -33
-20 -70 -20 -91 0 -137 69 -119 180 14 91 52 152 132 213 116 89 313 101 454
28 l37 -18 -32 -17 c-94 -49 -143 -124 -150 -232 -5 -81 8 -130 46 -176 65
-78 213 -79 294 -2 l26 26 7 -30 c11 -51 61 -119 107 -146 24 -14 68 -28 99
-32 110 -13 280 53 384 150 33 31 62 56 65 56 3 0 22 -18 43 -41 93 -98 240
-164 367 -163 118 0 181 42 224 148 l23 56 19 -21 c45 -51 161 -75 231 -48 41
15 91 67 104 108 7 20 12 64 11 98 -1 106 -57 199 -147 245 l-39 20 35 18
c116 60 280 65 393 12 110 -52 176 -135 197 -250 14 -71 0 -121 -42 -156 -42
-35 -115 -37 -147 -3 -42 44 -16 104 40 93 35 -7 36 8 3 30 -31 20 -65 9 -91
-30 -21 -34 -12 -70 30 -112 61 -61 150 -54 208 17 23 29 31 50 35 98 l6 61
1428 0 c1264 0 1429 2 1429 15 0 13 -166 15 -1433 15 l-1432 0 -17 48 c-52
145 -190 232 -367 232 -97 0 -167 -14 -246 -49 -55 -24 -64 -25 -105 -15 -25
7 -78 13 -117 13 -71 1 -73 2 -73 26 0 59 -53 140 -112 171 -86 45 -208 -21
-208 -111 1 -51 50 -92 96 -81 25 7 45 41 37 64 -7 18 -40 15 -52 -5 -10 -17
-12 -17 -26 1 -21 28 -19 41 14 78 26 29 35 33 81 33 47 0 55 -4 85 -37 35
-38 62 -106 52 -131 -3 -8 -21 -18 -39 -22 -51 -12 -131 -49 -208 -99 -39 -25
-82 -46 -96 -46 -37 0 -106 19 -128 35 -18 14 -18 15 6 57 14 24 28 54 32 68
4 14 -4 4 -18 -21 -34 -64 -49 -74 -70 -50 -14 16 -16 26 -8 55 6 19 7 50 2
69 -4 21 -3 39 4 48 56 74 173 61 164 -18 -2 -20 -9 -29 -25 -31 -17 -3 -21 0
-17 12 4 10 1 16 -9 16 -22 0 -29 -27 -11 -45 21 -20 40 -19 64 5 30 30 26 73
-11 104 -47 40 -101 34 -157 -17 -20 -18 -24 -19 -35 -5 -47 59 -132 63 -174
9 -33 -43 2 -119 50 -107 20 5 27 13 27 31 0 16 -6 25 -15 25 -8 0 -15 -7 -15
-16 0 -28 -35 -11 -38 19 -8 69 79 92 142 37 32 -28 34 -33 25 -65 -6 -22 -6
-48 0 -70 8 -28 6 -39 -9 -57 -21 -26 -18 -28 -59 36 -39 63 -40 48 -1 -23 28
-50 29 -55 12 -67 -20 -15 -90 -34 -125 -34 -13 0 -55 20 -92 45 -73 48 -201
105 -234 105 -48 0 -6 135 53 171 17 10 45 19 61 19 38 0 93 -33 104 -62 16
-44 -11 -86 -35 -54 -16 23 -48 17 -52 -11 -3 -23 30 -53 61 -53 10 0 32 14
49 30 26 27 30 36 25 67 -16 95 -131 142 -222 90z m482 -189 c-2 -13 -4 -3 -4
22 0 25 2 35 4 23 2 -13 2 -33 0 -45z m-564 -79 c10 -28 36 -71 58 -94 l40
-43 -33 -7 c-41 -9 -77 -27 -105 -54 -12 -12 -24 -21 -26 -21 -3 0 -8 16 -11
35 -12 61 -43 122 -86 169 l-42 45 29 6 c15 4 33 8 38 10 6 2 35 4 65 4 l55 1
18 -51z m1316 36 c8 -4 0 -20 -23 -45 -42 -47 -71 -101 -87 -163 l-11 -46 -41
30 c-23 16 -60 35 -84 41 l-43 10 40 45 c21 24 46 67 56 95 l16 51 83 -6 c46
-2 88 -8 94 -12z m-1182 -35 c66 -30 156 -89 213 -139 l35 -30 -40 -2 c-68 -4
-108 1 -165 22 -80 29 -128 82 -155 168 -7 22 -5 23 21 17 16 -4 57 -20 91
-36z m947 -27 c-47 -98 -157 -152 -291 -145 -18 1 -33 6 -33 10 0 12 144 119
194 144 23 12 64 29 91 39 59 21 67 12 39 -48z m395 -21 c47 -38 91 -118 91
-166 0 -124 -107 -224 -210 -196 -153 41 -173 243 -37 384 l45 48 34 -17 c18
-10 53 -33 77 -53z m-1666 18 c51 -56 78 -115 84 -180 7 -73 -9 -121 -52 -159
-118 -103 -278 -17 -279 150 -1 45 5 65 30 105 32 53 124 124 160 124 13 0 36
-16 57 -40z m777 5 c0 -7 -7 -19 -16 -26 -14 -11 -18 -10 -30 6 -12 16 -12 21
3 37 12 14 19 15 30 7 7 -6 13 -17 13 -24z m-46 -57 c-10 -17 -97 -68 -114
-68 -9 0 -29 13 -44 29 l-27 29 44 6 c24 4 59 15 78 25 31 17 36 17 51 4 10
-9 15 -20 12 -25z m100 22 c21 -10 59 -22 83 -26 l44 -6 -27 -29 c-15 -16 -37
-29 -49 -29 -17 0 -72 32 -113 65 -3 2 20 45 23 45 1 0 18 -9 39 -20z m30
-104 c17 -6 12 -15 -44 -71 l-64 -65 -63 62 c-34 34 -61 63 -60 65 2 1 30 20
63 41 l59 38 45 -31 c25 -18 54 -35 64 -39z m-463 -32 c30 -26 49 -75 49 -125
0 -34 -6 -47 -35 -76 -31 -31 -40 -35 -71 -30 -62 10 -81 42 -47 79 15 17 15
20 1 34 -25 25 -58 2 -58 -40 0 -26 8 -41 35 -65 72 -63 169 -29 195 69 11 42
10 56 -15 136 -6 18 -3 20 22 17 15 -3 47 0 70 5 l42 10 68 -69 c37 -38 69
-73 71 -78 1 -4 -25 -34 -60 -66 -111 -103 -284 -164 -386 -136 -50 14 -116
75 -138 127 -28 66 -14 144 34 187 53 48 180 60 223 21z m895 1 c61 -30 86
-70 86 -136 0 -86 -70 -177 -155 -200 -103 -28 -278 35 -390 141 l-62 59 69
70 70 70 78 -2 c43 -1 78 -4 78 -7 -1 -3 -7 -14 -15 -24 -23 -31 -19 -124 6
-166 29 -47 48 -59 92 -60 72 0 117 38 117 99 0 36 -32 60 -55 41 -13 -11 -13
-15 0 -33 30 -43 13 -74 -48 -84 -50 -8 -97 36 -104 97 -5 54 28 128 67 147
41 21 111 16 166 -12z"/>
<path d="M3370 1610 c0 -5 5 -10 11 -10 5 0 7 5 4 10 -3 6 -8 10 -11 10 -2 0
-4 -4 -4 -10z"/>
<path d="M3300 1580 c0 -5 5 -10 10 -10 6 0 10 5 10 10 0 6 -4 10 -10 10 -5 0
-10 -4 -10 -10z"/>
<path d="M5710 1580 c0 -5 5 -10 10 -10 6 0 10 5 10 10 0 6 -4 10 -10 10 -5 0
-10 -4 -10 -10z"/>
<path d="M3222 1548 c-8 -8 -9 -15 -1 -25 15 -17 25 -17 32 1 8 21 -16 39 -31
24z"/>
<path d="M5781 1546 c-9 -10 -8 -16 4 -26 19 -16 41 1 32 24 -8 20 -21 20 -36
2z"/>
<path d="M3132 1468 c-16 -16 -15 -23 4 -42 21 -22 56 -3 52 27 -3 25 -37 34
-56 15z"/>
<path d="M5844 1458 c-9 -28 20 -52 47 -37 22 11 24 30 7 47 -19 19 -46 14
-54 -10z"/>
</g>
</svg>
