<?xml version="1.0" standalone="no"?>
<!DOCTYPE svg PUBLIC "-//W3C//DTD SVG 20010904//EN"
 "http://www.w3.org/TR/2001/REC-SVG-20010904/DTD/svg10.dtd">
<svg version="1.0" xmlns="http://www.w3.org/2000/svg"
 width="500.000000pt" height="500.000000pt" viewBox="0 0 500.000000 500.000000"
 preserveAspectRatio="xMidYMid meet">

<g transform="translate(0.000000,500.000000) scale(0.100000,-0.100000)"
fill="#564343" stroke="none">
<path d="M1488 3794 c-200 -48 -370 -215 -423 -414 -20 -74 -19 -232 1 -301
37 -124 127 -249 232 -321 l45 -31 -39 -12 c-92 -27 -152 -78 -190 -160 l-24
-50 0 -548 0 -548 25 -54 c28 -58 72 -102 138 -137 l42 -23 850 0 850 0 51 27
c59 31 108 84 138 147 21 45 21 58 21 586 0 585 2 565 -56 651 -32 47 -88 87
-147 105 -23 7 -42 15 -42 18 0 3 24 22 52 41 106 72 194 211 225 353 59 278
-112 567 -389 658 -101 33 -253 34 -349 1 -134 -46 -235 -124 -311 -239 -22
-35 -41 -63 -43 -63 -1 0 -18 26 -38 59 -127 204 -387 312 -619 255z m232
-266 c83 -23 176 -120 200 -208 15 -54 12 -140 -7 -194 -24 -67 -99 -147 -165
-177 -72 -32 -183 -33 -249 -2 -236 108 -254 435 -30 556 83 46 155 53 251 25z
m1062 -5 c68 -21 139 -88 173 -164 24 -55 27 -70 23 -143 -5 -93 -25 -140 -85
-200 -123 -125 -333 -122 -448 6 -135 148 -99 384 72 480 85 48 162 54 265 21z
m-606 -580 c33 -57 125 -156 171 -184 19 -12 32 -23 30 -26 -8 -7 -452 -6
-455 1 -1 4 23 27 55 51 56 42 109 104 149 173 10 17 19 32 20 32 1 0 15 -21
30 -47z"/>
<path d="M3629 2501 c-141 -81 -268 -155 -283 -164 l-26 -17 0 -359 c0 -328 1
-359 18 -373 18 -16 454 -268 530 -307 33 -17 47 -19 62 -11 11 6 21 12 21 13
7 12 6 1325 -1 1343 -7 18 -17 24 -37 23 -17 0 -130 -59 -284 -148z"/>
</g>
</svg>
